<?xml version="1.0" encoding="utf-8"?>
<!-- Generator: Adobe Illustrator 27.9.0, SVG Export Plug-In . SVG Version: 6.00 Build 0)  -->
<svg version="1.1" id="Calque_1" xmlns="http://www.w3.org/2000/svg" xmlns:xlink="http://www.w3.org/1999/xlink" x="0px" y="0px"
	 viewBox="0 0 595.28 361.02" style="enable-background:new 0 0 595.28 361.02;" xml:space="preserve">
<style type="text/css">
	.st0{fill:#FFFFFF;}
</style>
<g>
	<g>
		<path class="st0" d="M173.24,229.16h10.88v1.62h-4.56v13.3h-1.77v-13.3h-4.56V229.16z"/>
		<path class="st0" d="M197.18,229.16h1.87l6.01,14.92h-1.89l-1.66-4.24h-6.85l-1.66,4.24h-1.83L197.18,229.16z M195.29,238.21h5.57
			l-2.77-7.1L195.29,238.21z"/>
		<path class="st0" d="M219.31,229.16c2.37,0,4.58,1.11,4.58,3.8c0,1.45-0.71,2.56-2.02,3.19c1.7,0.55,2.65,1.97,2.65,3.74
			c0,2.88-2.46,4.18-5.11,4.18h-4.88v-14.92H219.31z M219.22,235.51c1.58,0,2.86-0.63,2.86-2.38c0-1.72-1.28-2.39-2.86-2.39h-2.92
			v4.77H219.22z M219.37,242.5c1.76,0,3.34-0.74,3.34-2.71c0-2.02-1.53-2.75-3.34-2.75h-3.07v5.46H219.37z"/>
		<path class="st0" d="M234.54,229.16h1.77v13.3h6.64v1.62h-8.4V229.16z"/>
		<path class="st0" d="M261.53,229.16v1.58h-6.83v4.79h6.24v1.6h-6.24v5.36h7.04v1.6h-8.8v-14.92H261.53z"/>
		<path class="st0" d="M276.97,229.16h1.87l6.01,14.92h-1.89l-1.66-4.24h-6.85l-1.66,4.24h-1.83L276.97,229.16z M275.08,238.21h5.57
			l-2.77-7.1L275.08,238.21z"/>
		<path class="st0" d="M295.42,229.16v9.08c0,2.54,1.34,4.64,4.14,4.64c2.73,0,4.14-2,4.14-4.64v-9.08h1.76v9.14
			c0,3.55-2.16,6.2-5.93,6.2c-3.66,0-5.88-2.5-5.88-6.2v-9.14H295.42z"/>
		<path class="st0" d="M319.93,236.2l-4.85-7.04h2.08l3.8,5.74l3.78-5.74h2.02l-4.85,7.04l5.44,7.88h-2.19l-4.29-6.47l-4.29,6.47
			h-2.1L319.93,236.2z"/>
		<path class="st0" d="M160.83,255.83c4.48,0,7.9,2.61,7.9,7.42c0,4.62-3.21,7.5-7.88,7.5h-4.96v-14.92H160.83z M160.79,269.13
			c3.53,0,6.14-2.08,6.14-5.84c0-3.63-2.44-5.84-6.14-5.84h-3.13v11.68H160.79z"/>
		<path class="st0" d="M178.82,255.83h8.59v1.58h-6.83v4.79h6.24v1.6h-6.24v5.36h7.04v1.6h-8.8V255.83z M181.3,254.17l2.86-2.54
			h2.27l-3.24,2.54H181.3z"/>
		<path class="st0" d="M197.19,263.42c0-4.08,2.65-8,7.06-8c2.54,0,4.96,1.34,5.95,3.78l-1.62,0.61c-0.86-1.74-2.33-2.77-4.31-2.77
			c-3.38,0-5.27,3.26-5.27,6.37c0,3.13,1.85,6.16,5.32,6.16c2.02,0,3.49-1.03,4.41-2.77l1.62,0.61c-1.05,2.44-3.45,3.78-6.07,3.78
			C199.96,271.17,197.19,267.62,197.19,263.42z"/>
		<path class="st0" d="M227.01,255.41c4.45,0,7.25,3.51,7.25,7.88c0,4.24-2.82,7.9-7.33,7.9c-4.41,0-7.25-3.55-7.25-7.88
			C219.68,259.07,222.49,255.41,227.01,255.41z M226.97,269.57c3.47,0,5.48-2.96,5.48-6.28c0-3.24-1.93-6.26-5.48-6.26
			c-3.45,0-5.48,2.96-5.48,6.26C221.48,266.51,223.44,269.57,226.97,269.57z"/>
		<path class="st0" d="M244.35,255.83h4.06c2.79,0,5.55,1.26,5.55,4.48c0,1.93-1.11,3.4-2.9,4.1l3.61,6.35h-2.06l-3.24-5.88
			c-0.42,0.04-0.84,0.06-1.26,0.06c-0.65,0-1.34-0.06-2-0.17v5.99h-1.77V255.83z M246.11,263.19c0.67,0.13,1.39,0.17,2.06,0.17
			c1.95,0,3.97-0.67,3.97-2.96c0-2.21-1.79-2.98-3.74-2.98h-2.29V263.19z"/>
		<path class="st0" d="M269.16,255.83h1.87l6.01,14.92h-1.89l-1.66-4.24h-6.85l-1.66,4.24h-1.83L269.16,255.83z M267.27,264.89h5.57
			l-2.77-7.1L267.27,264.89z"/>
		<path class="st0" d="M284.09,255.83h10.88v1.62h-4.56v13.3h-1.77v-13.3h-4.56V255.83z"/>
		<path class="st0" d="M304.97,255.83h1.77v14.92h-1.77V255.83z"/>
		<path class="st0" d="M325.78,255.83v1.62h-6.64v5.13h6.03v1.62h-6.03v6.56h-1.77v-14.92H325.78z"/>
		<path class="st0" d="M336.45,267.18c0.53,1.43,1.79,2.31,3.32,2.31c1.64,0,3.17-1.03,3.17-2.82c0-1.64-1.3-2.33-2.73-2.65
			l-0.92-0.21c-2.16-0.5-4.12-1.64-4.12-4.1c0-2.54,2.1-4.2,4.58-4.2c2.19,0,4.08,1.2,4.75,3.34l-1.66,0.53
			c-0.53-1.39-1.58-2.29-3.09-2.29c-1.47,0-2.79,0.9-2.79,2.5c0,1.64,1.53,2.25,2.9,2.56l0.92,0.21c2.21,0.53,3.95,1.74,3.95,4.2
			c0,2.77-2.23,4.5-4.94,4.5c-2.21,0-4.26-1.18-5-3.36L336.45,267.18z"/>
	</g>
	<path class="st0" d="M459.1,240.17c-8.27-0.08-37.22-1.83-53.91-21.63c-19.01-22.56-16.16-49.17-16.87-75.16h21.89c0,0,0,0,0,0
		l-0.18-0.04l0.2,0c4.7-9.49,11.93-17.5,20.81-23.16c1.29-0.82,0.72-2.82-0.81-2.82h-41.94c0-0.06,0-0.13,0.01-0.19h-0.05V87.18
		c0-1.27-1.03-2.3-2.3-2.3h-22c-1.27,0-2.3,1.03-2.3,2.3v29.32c0,0-0.05,0-0.13-0.01c0.1,0.28,0.09,0.59-0.01,0.87h-48.52
		c-1.5,0-2.1,1.93-0.86,2.79c7.76,5.38,13.77,12.97,17.38,22.31c0.23,0.59,0.79,0.99,1.43,0.99h24.38c0.12,0,0.25-0.01,0.37-0.03
		c0.08-0.01,0.16-0.02,0.25-0.03h5.71l0,0.07l0.33,39.53c0,0,4.25,80.74,97.03,83.7c0.02,0,0.05,0,0.07,0c1.26,0,2.28-1.03,2.28-2.3
		l0-21.92C461.36,241.21,460.36,240.18,459.1,240.17z"/>
	<path class="st0" d="M133.08,117.24c-9.57,0-18.54,2.58-26.26,7.06v-5.87c0-1.27-1.03-2.3-2.3-2.3H82.19c-1.27,0-2.3,1.03-2.3,2.3
		v146.31c0,1.27,1.03,2.3,2.3,2.3h22.33c1.27,0,2.3-1.03,2.3-2.3v-49.75c7.72,4.48,16.69,7.06,26.26,7.06
		c28.94,0,52.41-23.46,52.41-52.41C185.49,140.7,162.02,117.24,133.08,117.24z M132.08,195.9c-12.74,0-23.3-9.3-25.26-21.49
		c-0.22-1.34-0.33-2.71-0.33-4.11c0-1.4,0.12-2.77,0.33-4.11c1.97-12.18,12.53-21.49,25.26-21.49c14.14,0,25.59,11.46,25.59,25.59
		C157.68,184.44,146.22,195.9,132.08,195.9z"/>
	<path class="st0" d="M512.9,115.38h-22.33c-1.2,0-2.18,0.93-2.28,2.1c-0.01,0.06-0.02,0.13-0.02,0.19v2.81v3.07
		c-7.72-4.48-16.69-7.06-26.26-7.06c-2.13,0-4.22,0.14-6.29,0.39c-0.9,0.11-1.78,0.24-2.66,0.39c-0.9,0.15-1.79,0.33-2.67,0.53
		c-1.05,0.24-2.09,0.51-3.12,0.81c-14.29,4.18-26.06,14.28-32.45,27.47c-0.43,0.88-0.83,1.78-1.21,2.69
		c-2.58,6.2-4.01,13-4.01,20.13c0,28.94,23.46,52.41,52.41,52.41c9.57,0,18.54-2.58,26.26-7.06v3.07v1.4c0,0.52,0.18,0.99,0.47,1.38
		c0.42,0.56,1.08,0.92,1.83,0.92h22.33c1.27,0,2.3-1.03,2.3-2.3v-27.27v-8.21v-28.65v-8.21v-28.68
		C515.19,116.41,514.16,115.38,512.9,115.38z M463.01,195.15c-14.14,0-25.59-11.46-25.59-25.59c0-14.14,11.46-25.59,25.59-25.59
		c12.74,0,23.3,9.3,25.26,21.49c0.22,1.34,0.33,2.71,0.33,4.11s-0.12,2.77-0.33,4.11C486.3,185.85,475.74,195.15,463.01,195.15z"/>
	<path class="st0" d="M325,185.32l-24.9-4.1c-0.12-0.02-0.25-0.03-0.37-0.03c-0.88,0-1.69,0.51-2.08,1.33
		c-3.15,6.61-8.94,10.57-16.63,10.57c-13.27,0-19.53-12.9-19.53-24.51c0-11.79,6.27-25.06,19.53-25.06
		c7.52,0,12.51,4.28,15.69,10.64c0.39,0.78,1.19,1.27,2.05,1.27c0.12,0,0.25-0.01,0.37-0.03l24.91-4.1c1.22-0.2,2.03-1.32,1.91-2.5
		c-0.01-0.13-0.03-0.27-0.07-0.4c-0.22-0.77-0.47-1.53-0.72-2.28c-0.31-0.91-0.65-1.8-1.01-2.68c-5.84-14.21-17.8-23.31-32.6-26.09
		c-3.2-0.6-6.54-0.92-9.97-0.92c-0.39,0-0.76,0.02-1.15,0.03c-0.93,0.02-1.86,0.06-2.77,0.13c-27.89,1.99-46.75,25.07-46.75,52.55
		c0,28.93,21.38,51.04,49.94,51.04c20.74,0,40.45-11.76,46.02-32.01C327.21,186.87,326.34,185.54,325,185.32z"/>
	<path class="st0" d="M217.71,126.8h-24.66c-1.27,0-2.3,1.03-2.3,2.3v81.56c0,1.27,1.03,2.3,2.3,2.3h24.66c1.27,0,2.3-1.03,2.3-2.3
		V129.1C220,127.83,218.97,126.8,217.71,126.8z"/>
	<path class="st0" d="M205.29,84.45c-5.56,0-11.31,2.87-14,7.9c-1.44,2.33-2.15,5.02-2.15,8.08c0,3.05,0.72,5.74,2.15,8.08
		c2.69,5.02,8.43,7.9,14,7.9c5.92,0,11.31-2.87,14.36-7.9c1.26-2.33,1.97-5.02,1.97-8.08c0-3.05-0.72-5.74-1.97-8.08
		C216.59,87.32,211.21,84.45,205.29,84.45z"/>
</g>
</svg>
